<svg width="406" height="641" viewBox="0 0 406 641" fill="none" xmlns="http://www.w3.org/2000/svg">
<g clip-path="url(#clip0_4764_3757)">
<path d="M405.868 351.1C405.868 352.181 404.992 353.056 403.912 353.056L400.978 353.056L400.978 256.235L403.912 256.235C404.992 256.235 405.868 257.111 405.868 258.191L405.868 351.1Z" fill="#AFAFAD"/>
<path opacity="0.76" d="M405.868 351.1C405.868 352.181 404.992 353.056 403.912 353.056L400.978 353.056L400.978 256.235L403.912 256.235C404.992 256.235 405.868 257.111 405.868 258.191L405.868 351.1Z" fill="url(#paint0_linear_4764_3757)"/>
<path d="M405.868 351.1C405.868 352.181 404.992 353.056 403.912 353.056L400.978 353.056L400.978 256.235L403.912 256.235C404.992 256.235 405.868 257.111 405.868 258.191L405.868 351.1Z" fill="url(#paint1_linear_4764_3757)"/>
<path opacity="0.48" d="M405.868 351.1C405.868 352.181 404.992 353.056 403.912 353.056L400.978 353.056L400.978 256.235L403.912 256.235C404.992 256.235 405.868 257.111 405.868 258.191L405.868 351.1Z" fill="url(#paint2_linear_4764_3757)"/>
<g filter="url(#filter0_f_4764_3757)">
<path d="M404.89 259.658C404.89 259.928 404.671 260.147 404.401 260.147C404.131 260.147 403.912 259.928 403.912 259.658L403.912 258.191L404.89 258.191L404.89 259.658Z" fill="white"/>
</g>
<g filter="url(#filter1_f_4764_3757)">
<path d="M404.891 351.101L403.913 351.101L403.913 258.68C403.913 258.41 404.132 258.191 404.402 258.191C404.672 258.191 404.891 258.41 404.891 258.68L404.891 351.101Z" fill="white" fill-opacity="0.8"/>
</g>
<g filter="url(#filter2_f_4764_3757)">
<path d="M405.868 349.145L404.89 349.145L404.89 256.724C404.89 256.454 405.109 256.235 405.379 256.235C405.649 256.235 405.868 256.454 405.868 256.724L405.868 349.145Z" fill="#ECEDEA"/>
</g>
</g>
<g clip-path="url(#clip1_4764_3757)">
<path d="M0 171.149C0 170.069 0.875726 169.193 1.95599 169.193H4.88998V199.511H1.95599C0.875728 199.511 0 198.635 0 197.555V171.149Z" fill="#AFAFAD"/>
<path opacity="0.76" d="M0 171.149C0 170.069 0.875726 169.193 1.95599 169.193H4.88998V199.511H1.95599C0.875728 199.511 0 198.635 0 197.555V171.149Z" fill="url(#paint3_linear_4764_3757)"/>
<path d="M0 171.149C0 170.069 0.875726 169.193 1.95599 169.193H4.88998V199.511H1.95599C0.875728 199.511 0 198.635 0 197.555V171.149Z" fill="url(#paint4_linear_4764_3757)"/>
<path opacity="0.48" d="M0 171.149C0 170.069 0.875726 169.193 1.95599 169.193H4.88998V199.511H1.95599C0.875728 199.511 0 198.635 0 197.555V171.149Z" fill="url(#paint5_linear_4764_3757)"/>
<g filter="url(#filter3_f_4764_3757)">
<path d="M0.978516 170.66C0.978516 170.39 1.19745 170.171 1.46751 170.171C1.73758 170.171 1.95651 170.39 1.95651 170.66V172.127H0.978516V170.66Z" fill="white"/>
</g>
<g filter="url(#filter4_f_4764_3757)">
<path d="M0.978516 170.171H1.95651V198.044C1.95651 198.314 1.73758 198.533 1.46751 198.533C1.19745 198.533 0.978516 198.314 0.978516 198.044V170.171Z" fill="white" fill-opacity="0.8"/>
</g>
<g filter="url(#filter5_f_4764_3757)">
<path d="M0 168.215H0.977995V200.978C0.977995 201.248 0.759063 201.467 0.488998 201.467C0.218932 201.467 0 201.248 0 200.978V168.215Z" fill="#ECEDEA"/>
</g>
</g>
<g clip-path="url(#clip2_4764_3757)">
<path d="M0 236.675C0 235.595 0.875726 234.719 1.95599 234.719H4.88998V289.487H1.95599C0.875728 289.487 0 288.611 0 287.531V236.675Z" fill="#AFAFAD"/>
<path opacity="0.76" d="M0 236.675C0 235.595 0.875726 234.719 1.95599 234.719H4.88998V289.487H1.95599C0.875728 289.487 0 288.611 0 287.531V236.675Z" fill="url(#paint6_linear_4764_3757)"/>
<path d="M0 236.675C0 235.595 0.875726 234.719 1.95599 234.719H4.88998V289.487H1.95599C0.875728 289.487 0 288.611 0 287.531V236.675Z" fill="url(#paint7_linear_4764_3757)"/>
<path opacity="0.48" d="M0 236.675C0 235.595 0.875726 234.719 1.95599 234.719H4.88998V289.487H1.95599C0.875728 289.487 0 288.611 0 287.531V236.675Z" fill="url(#paint8_linear_4764_3757)"/>
<g filter="url(#filter6_f_4764_3757)">
<path d="M0.978516 236.186C0.978516 235.916 1.19745 235.697 1.46751 235.697C1.73758 235.697 1.95651 235.916 1.95651 236.186V237.653H0.978516V236.186Z" fill="white"/>
</g>
<g filter="url(#filter7_f_4764_3757)">
<path d="M0.978516 236.675H1.95651V288.02C1.95651 288.29 1.73758 288.509 1.46751 288.509C1.19745 288.509 0.978516 288.29 0.978516 288.02V236.675Z" fill="white" fill-opacity="0.8"/>
</g>
<g filter="url(#filter8_f_4764_3757)">
<path d="M0 234.719H0.977995V290.954C0.977995 291.224 0.759063 291.443 0.488998 291.443C0.218932 291.443 0 291.224 0 290.954V234.719Z" fill="#ECEDEA"/>
</g>
</g>
<g clip-path="url(#clip3_4764_3757)">
<path d="M0 313.937C0 312.856 0.875726 311.981 1.95599 311.981H4.88998V366.748H1.95599C0.875728 366.748 0 365.873 0 364.792V313.937Z" fill="#AFAFAD"/>
<path opacity="0.76" d="M0 313.937C0 312.856 0.875726 311.981 1.95599 311.981H4.88998V366.748H1.95599C0.875728 366.748 0 365.873 0 364.792V313.937Z" fill="url(#paint9_linear_4764_3757)"/>
<path d="M0 313.937C0 312.856 0.875726 311.981 1.95599 311.981H4.88998V366.748H1.95599C0.875728 366.748 0 365.873 0 364.792V313.937Z" fill="url(#paint10_linear_4764_3757)"/>
<path opacity="0.48" d="M0 313.937C0 312.856 0.875726 311.981 1.95599 311.981H4.88998V366.748H1.95599C0.875728 366.748 0 365.873 0 364.792V313.937Z" fill="url(#paint11_linear_4764_3757)"/>
<g filter="url(#filter9_f_4764_3757)">
<path d="M0.978516 313.448C0.978516 313.178 1.19745 312.959 1.46751 312.959C1.73758 312.959 1.95651 313.178 1.95651 313.448V314.915H0.978516V313.448Z" fill="white"/>
</g>
<g filter="url(#filter10_f_4764_3757)">
<path d="M0.978516 313.937H1.95651V365.282C1.95651 365.552 1.73758 365.771 1.46751 365.771C1.19745 365.771 0.978516 365.552 0.978516 365.282V313.937Z" fill="white" fill-opacity="0.8"/>
</g>
<g filter="url(#filter11_f_4764_3757)">
<path d="M0 311.981H0.977995V368.215C0.977995 368.485 0.759063 368.704 0.488998 368.704C0.218932 368.704 0 368.485 0 368.215V311.981Z" fill="#ECEDEA"/>
</g>
</g>
<g clip-path="url(#clip4_4764_3757)">
<rect x="2.93359" width="400" height="824.45" rx="60.6357" fill="#F7F7F7"/>
<g filter="url(#filter12_f_4764_3757)">
<rect x="4.40059" y="1.46699" width="397.066" height="821.516" rx="59.1687" stroke="#D3D3D3" stroke-width="2.93399"/>
</g>
<g filter="url(#filter13_f_4764_3757)">
<rect x="3.42259" y="0.488998" width="399.022" height="823.472" rx="60.1467" stroke="#606060" stroke-width="0.977995"/>
</g>
<g filter="url(#filter14_f_4764_3757)">
<rect x="8.31224" y="5.37913" width="389.242" height="812.714" rx="60.1467" stroke="white" stroke-width="0.977995"/>
</g>
<rect x="8.60616" y="5.67257" width="388.655" height="812.127" rx="60.8313" stroke="white" stroke-width="0.391198"/>
<rect x="2.93359" y="92.9097" width="8.80196" height="3.91198" transform="rotate(-90 2.93359 92.9097)" fill="url(#paint12_linear_4764_3757)"/>
<path d="M399.021 84.1077H402.933V91.9316H399.021V84.1077Z" fill="url(#paint13_linear_4764_3757)"/>
</g>
<g clip-path="url(#clip5_4764_3757)">
<rect x="6.8457" y="3.91211" width="392.176" height="816.626" rx="56.7237" fill="white"/>
<g filter="url(#filter15_f_4764_3757)">
<rect x="8.80169" y="5.8681" width="388.264" height="812.714" rx="54.7677" stroke="url(#paint14_radial_4764_3757)" stroke-width="3.91198"/>
</g>
<path opacity="0.35" d="M356.173 37.0623H372.118C373.263 37.0623 374.191 37.9907 374.191 39.1355V44.8757C374.191 46.0205 373.263 46.948 372.118 46.948H356.173C355.028 46.948 354.1 46.0205 354.1 44.8757V39.1355C354.1 37.9906 355.028 37.0623 356.173 37.0623Z" stroke="white" stroke-width="0.956743"/>
<path opacity="0.4" d="M375.626 40.0918V43.9188C376.396 43.5946 376.897 42.8406 376.897 42.0053C376.897 41.1699 376.396 40.4159 375.626 40.0918Z" fill="white"/>
<path d="M355.534 39.5497C355.534 38.9685 356.005 38.4973 356.587 38.4973H371.703C372.284 38.4973 372.756 38.9685 372.756 39.5497V44.461C372.756 45.0422 372.284 45.5134 371.703 45.5134H356.587C356.005 45.5134 355.534 45.0422 355.534 44.461V39.5497Z" fill="white"/>
<path fill-rule="evenodd" clip-rule="evenodd" d="M341.5 38.7599C343.62 38.76 345.659 39.5746 347.195 41.0353C347.311 41.1481 347.496 41.1467 347.61 41.0321L348.716 39.9159C348.773 39.8578 348.806 39.7791 348.805 39.6973C348.805 39.6154 348.772 39.5371 348.713 39.4797C344.68 35.6149 338.318 35.6149 334.285 39.4797C334.227 39.537 334.194 39.6153 334.193 39.6972C334.193 39.7791 334.225 39.8578 334.283 39.9159L335.389 41.0321C335.503 41.1469 335.688 41.1483 335.803 41.0353C337.34 39.5745 339.379 38.7599 341.5 38.7599ZM341.5 42.3913C342.664 42.3913 343.788 42.8242 344.651 43.6061C344.768 43.7171 344.952 43.7147 345.066 43.6007L346.17 42.4845C346.229 42.4259 346.261 42.3465 346.26 42.264C346.259 42.1814 346.225 42.1027 346.166 42.0453C343.537 39.5995 339.465 39.5995 336.836 42.0453C336.776 42.1027 336.742 42.1815 336.741 42.264C336.741 42.3466 336.773 42.426 336.831 42.4845L337.936 43.6007C338.05 43.7147 338.234 43.7171 338.35 43.6061C339.213 42.8248 340.336 42.3918 341.5 42.3913ZM343.713 44.8347C343.714 44.9175 343.682 44.9973 343.623 45.0552L341.712 46.9837C341.656 47.0404 341.579 47.0723 341.5 47.0723C341.42 47.0723 341.344 47.0404 341.288 46.9837L339.376 45.0552C339.317 44.9972 339.285 44.9174 339.287 44.8346C339.288 44.7519 339.324 44.6735 339.386 44.618C340.606 43.5858 342.393 43.5858 343.614 44.618C343.675 44.6735 343.711 44.7519 343.713 44.8347Z" fill="white"/>
<path fill-rule="evenodd" clip-rule="evenodd" d="M328.427 36.9023H327.47C326.942 36.9023 326.514 37.3307 326.514 37.8591V46.1509C326.514 46.6793 326.942 47.1076 327.47 47.1076H328.427C328.955 47.1076 329.384 46.6793 329.384 46.1509V37.8591C329.384 37.3307 328.955 36.9023 328.427 36.9023ZM323.005 39.1347H323.962C324.491 39.1347 324.919 39.5631 324.919 40.0915V46.1509C324.919 46.6793 324.491 47.1076 323.962 47.1076H323.005C322.477 47.1076 322.049 46.6793 322.049 46.1509V40.0915C322.049 39.5631 322.477 39.1347 323.005 39.1347ZM319.497 41.3671H318.541C318.012 41.3671 317.584 41.7955 317.584 42.3239V46.1509C317.584 46.6793 318.012 47.1076 318.541 47.1076H319.497C320.026 47.1076 320.454 46.6793 320.454 46.1509V42.3239C320.454 41.7955 320.026 41.3671 319.497 41.3671ZM315.033 43.2806H314.076C313.547 43.2806 313.119 43.709 313.119 44.2374V46.1509C313.119 46.6793 313.547 47.1076 314.076 47.1076H315.033C315.561 47.1076 315.989 46.6793 315.989 46.1509V44.2374C315.989 43.709 315.561 43.2806 315.033 43.2806Z" fill="white"/>
<path d="M53.6188 47.683C52.6938 47.683 51.9066 47.4331 51.2573 46.9332C50.6079 46.4287 50.2085 45.7606 50.059 44.9291H51.8599C51.9767 45.3122 52.1916 45.6158 52.5046 45.8401C52.8223 46.0596 53.1983 46.1694 53.6328 46.1694C54.3709 46.1694 54.9478 45.8447 55.3636 45.1954C55.7794 44.5414 55.9873 43.6351 55.9873 42.4765H55.9242H55.8892H55.8681C55.6299 42.9577 55.2819 43.3314 54.824 43.5977C54.3662 43.8593 53.8407 43.9901 53.2474 43.9901C52.285 43.9901 51.4885 43.6724 50.8579 43.0371C50.2319 42.4018 49.9189 41.5982 49.9189 40.6266C49.9189 39.5895 50.2692 38.7392 50.97 38.0759C51.6754 37.4078 52.577 37.0738 53.6748 37.0738C54.4129 37.0738 55.067 37.2443 55.6369 37.5853C56.2068 37.9264 56.6623 38.4216 57.0033 39.0709C57.4798 39.9165 57.7181 40.9816 57.7181 42.2663C57.7181 43.9667 57.356 45.2958 56.6319 46.2535C55.9078 47.2065 54.9035 47.683 53.6188 47.683ZM52.2523 42C52.6261 42.3691 53.1026 42.5536 53.6818 42.5536C54.2611 42.5536 54.7399 42.3691 55.1183 42C55.4967 41.6309 55.6859 41.1638 55.6859 40.5985C55.6859 40.0286 55.4944 39.5498 55.1113 39.162C54.7283 38.7743 54.2541 38.5804 53.6888 38.5804C53.1236 38.5804 52.6494 38.7719 52.2663 39.155C51.8833 39.5334 51.6917 40.0052 51.6917 40.5705C51.6917 41.1498 51.8786 41.6263 52.2523 42ZM60.4141 46.3656C60.0871 46.3656 59.8184 46.2605 59.6082 46.0503C59.398 45.8401 59.2929 45.5761 59.2929 45.2584C59.2929 44.9361 59.398 44.6722 59.6082 44.4666C59.8184 44.2564 60.0871 44.1513 60.4141 44.1513C60.7458 44.1513 61.0144 44.2564 61.2199 44.4666C61.4301 44.6722 61.5353 44.9361 61.5353 45.2584C61.5353 45.5761 61.4301 45.8401 61.2199 46.0503C61.0144 46.2605 60.7458 46.3656 60.4141 46.3656ZM60.4141 41.1101C60.0871 41.1101 59.8184 41.0073 59.6082 40.8017C59.398 40.5915 59.2929 40.3276 59.2929 40.0099C59.2929 39.6876 59.398 39.4236 59.6082 39.2181C59.8184 39.0078 60.0871 38.9027 60.4141 38.9027C60.7458 38.9027 61.0144 39.0078 61.2199 39.2181C61.4301 39.4236 61.5353 39.6876 61.5353 40.0099C61.5353 40.3276 61.4301 40.5915 61.2199 40.8017C61.0144 41.0073 60.7458 41.1101 60.4141 41.1101ZM68.0433 47.4377V45.5528H63.103V43.9411C63.9252 42.4275 65.2987 40.2225 67.2234 37.3261H69.7741V44.0251H71.1405V45.5528H69.7741V47.4377H68.0433ZM64.7778 43.9621V44.0672H68.0713V38.7976H67.9732C66.88 40.414 65.8149 42.1355 64.7778 43.9621ZM74.8035 47.4377V39.148H74.6844L72.1687 40.9139V39.176L74.8105 37.3261H76.6114V47.4377H74.8035Z" fill="white"/>
</g>
<rect x="148.655" y="23.4719" width="107.579" height="30.3178" rx="15.1589" fill="#030303"/>
<circle cx="240.215" cy="38.7484" r="9.40852" fill="#0E0B0F"/>
<circle cx="240.215" cy="38.7484" r="5.22696" fill="#161424"/>
<circle cx="240.215" cy="38.7485" r="3.13617" fill="#0F0F2A"/>
<circle cx="240.215" cy="37.7031" r="1.04539" fill="#393752"/>
<g clip-path="url(#clip6_4764_3757)">
<rect width="376" height="482" transform="translate(14.9336 113.783)" fill="white"/>
<g clip-path="url(#clip7_4764_3757)">
<rect x="35.6006" y="157.116" width="334.667" height="393.333" rx="22.6667" fill="#8803E0"/>
<circle cx="132.6" cy="468.783" r="141.667" fill="white" fill-opacity="0.08"/>
<rect width="334.667" height="105.333" transform="translate(35.6006 157.116)" fill="url(#paint15_linear_4764_3757)"/>
<path d="M166.844 442.383H172.78C175.562 442.383 177.167 443.783 177.167 446.265C177.167 448.767 175.562 450.241 172.762 450.241H169.103V455.449H166.844V442.383ZM169.103 448.337H172.78C174.106 448.337 174.834 447.591 174.834 446.284C174.834 444.977 174.106 444.287 172.78 444.287H169.103V448.337ZM180.884 455.449H178.756V442.383H180.884V455.449ZM186.977 445.855C189.702 445.855 191.084 447.553 191.084 450.148V455.449H189.124V453.825C188.433 455.02 187.294 455.711 185.764 455.711C183.785 455.711 182.553 454.553 182.553 452.929C182.553 451.044 184.196 449.905 186.828 449.905C187.556 449.905 188.302 449.999 188.956 450.148C188.956 448.729 188.452 447.703 186.958 447.703C185.838 447.703 185.148 448.263 185.372 449.308H183.225C182.721 447.236 184.55 445.855 186.977 445.855ZM186.193 454.012C187.556 454.012 188.676 453.135 189.03 451.772C188.414 451.567 187.668 451.455 186.996 451.455C185.465 451.455 184.718 452.015 184.718 452.873C184.718 453.62 185.278 454.012 186.193 454.012ZM198.596 446.116V447.964H195.927V452.5C195.927 453.265 196.114 453.844 197.14 453.844C197.626 453.844 197.999 453.713 198.391 453.508V455.375C197.98 455.58 197.402 455.711 196.73 455.711C193.948 455.711 193.799 453.527 193.799 452.519V447.964H192.026V446.116H193.799V443.633H195.927V446.116H198.596ZM206.338 445.089H204.471C204.714 444.361 204.546 443.895 204.042 443.895C203.538 443.895 203.295 444.324 203.295 445.033V446.116H206.338V447.964H203.295V455.449H201.167V447.964H199.394V446.116H201.167V445.033C201.167 443.204 202.212 442.121 204.079 442.121C206.058 442.121 206.823 443.353 206.338 445.089ZM211.687 455.711C208.831 455.711 206.927 453.732 206.927 450.783C206.927 447.833 208.831 445.855 211.687 445.855C214.524 445.855 216.447 447.833 216.447 450.783C216.447 453.732 214.524 455.711 211.687 455.711ZM211.687 453.844C213.199 453.844 214.225 452.631 214.225 450.783C214.225 448.935 213.199 447.721 211.687 447.721C210.156 447.721 209.148 448.935 209.148 450.783C209.148 452.631 210.156 453.844 211.687 453.844ZM222.723 445.855C224.198 445.855 225.15 446.975 225.15 448.543C225.15 449.215 224.982 449.887 224.702 450.447H222.481C222.798 449.924 222.947 449.42 222.947 448.991C222.947 448.244 222.537 447.74 221.883 447.74C220.875 447.74 220.166 448.991 220.166 450.876V455.449H218.038V446.116H220.166V447.703C220.67 446.545 221.566 445.855 222.723 445.855ZM237.434 445.855C239.356 445.855 240.364 447.236 240.364 449.513V455.449H238.236V449.737C238.236 448.543 237.732 447.74 236.724 447.74C235.436 447.74 234.54 448.972 234.54 450.876V455.449H232.412V449.737C232.412 448.524 231.908 447.703 230.882 447.703C229.631 447.703 228.679 448.953 228.679 450.895V455.449H226.551V446.116H228.679V447.777C229.164 446.676 230.21 445.855 231.647 445.855C233.01 445.855 233.999 446.62 234.391 447.833C234.932 446.601 236.034 445.855 237.434 445.855Z" fill="white"/>
<path d="M98.712 477.489L101.592 469.449H102.779L99.2986 478.783H98.0986L94.592 469.449H95.792L98.712 477.489ZM108.068 476.769H109.175C108.788 478.116 107.682 478.943 106.162 478.943C104.175 478.943 102.908 477.556 102.908 475.449C102.908 473.343 104.188 471.956 106.215 471.956C108.455 471.956 109.468 473.649 108.908 475.836H104.002C104.135 477.209 104.922 478.009 106.148 478.009C107.068 478.009 107.788 477.543 108.068 476.769ZM106.175 472.863C104.935 472.863 104.175 473.623 104.015 474.916H108.015C108.148 473.663 107.468 472.863 106.175 472.863ZM113.399 471.956C114.359 471.956 114.959 472.703 114.959 473.636C114.959 474.036 114.852 474.396 114.705 474.703H113.625C113.812 474.423 113.879 474.129 113.879 473.863C113.879 473.289 113.545 472.929 113.039 472.929C112.185 472.929 111.612 473.969 111.612 475.543V478.783H110.599V472.116H111.612V473.276C111.999 472.436 112.612 471.956 113.399 471.956ZM116.797 470.983C116.357 470.983 116.024 470.649 116.024 470.209C116.024 469.783 116.357 469.449 116.797 469.449C117.224 469.449 117.557 469.783 117.557 470.209C117.557 470.649 117.224 470.983 116.797 470.983ZM117.304 478.783H116.29V472.116H117.304V478.783ZM122.834 471.236H121.901C122.127 470.623 121.981 470.223 121.527 470.223C121.114 470.223 120.874 470.556 120.874 471.129V472.116H122.834V473.036H120.874V478.783H119.861V473.036H118.661V472.116H119.861V471.129C119.861 469.983 120.461 469.289 121.567 469.289C122.767 469.289 123.207 470.103 122.834 471.236ZM124.518 470.983C124.078 470.983 123.745 470.649 123.745 470.209C123.745 469.783 124.078 469.449 124.518 469.449C124.945 469.449 125.278 469.783 125.278 470.209C125.278 470.649 124.945 470.983 124.518 470.983ZM125.025 478.783H124.012V472.116H125.025V478.783ZM131.662 476.769H132.769C132.382 478.116 131.275 478.943 129.755 478.943C127.769 478.943 126.502 477.556 126.502 475.449C126.502 473.343 127.782 471.956 129.809 471.956C132.049 471.956 133.062 473.649 132.502 475.836H127.595C127.729 477.209 128.515 478.009 129.742 478.009C130.662 478.009 131.382 477.543 131.662 476.769ZM129.769 472.863C128.529 472.863 127.769 473.623 127.609 474.916H131.609C131.742 473.663 131.062 472.863 129.769 472.863ZM139.206 473.289V469.449H140.219V478.783H139.206V477.609C138.699 478.449 137.872 478.943 136.832 478.943C135.072 478.943 133.846 477.556 133.846 475.449C133.846 473.356 135.059 471.956 136.832 471.956C137.886 471.956 138.712 472.449 139.206 473.289ZM137.086 478.009C138.379 478.009 139.246 476.983 139.246 475.449C139.246 473.916 138.379 472.889 137.086 472.889C135.792 472.889 134.926 473.916 134.926 475.449C134.926 476.983 135.792 478.009 137.086 478.009ZM148.138 471.956C149.098 471.956 149.698 472.703 149.698 473.636C149.698 474.036 149.592 474.396 149.445 474.703H148.365C148.552 474.423 148.618 474.129 148.618 473.863C148.618 473.289 148.285 472.929 147.778 472.929C146.925 472.929 146.352 473.969 146.352 475.543V478.783H145.338V472.116H146.352V473.276C146.738 472.436 147.352 471.956 148.138 471.956ZM151.537 470.983C151.097 470.983 150.763 470.649 150.763 470.209C150.763 469.783 151.097 469.449 151.537 469.449C151.963 469.449 152.297 469.783 152.297 470.209C152.297 470.649 151.963 470.983 151.537 470.983ZM152.043 478.783H151.03V472.116H152.043V478.783ZM158.88 473.289V469.449H159.894V478.783H158.88V477.609C158.374 478.449 157.547 478.943 156.507 478.943C154.747 478.943 153.52 477.556 153.52 475.449C153.52 473.356 154.734 471.956 156.507 471.956C157.56 471.956 158.387 472.449 158.88 473.289ZM156.76 478.009C158.054 478.009 158.92 476.983 158.92 475.449C158.92 473.916 158.054 472.889 156.76 472.889C155.467 472.889 154.6 473.916 154.6 475.449C154.6 476.983 155.467 478.009 156.76 478.009ZM166.467 476.769H167.573C167.187 478.116 166.08 478.943 164.56 478.943C162.573 478.943 161.307 477.556 161.307 475.449C161.307 473.343 162.587 471.956 164.613 471.956C166.853 471.956 167.867 473.649 167.307 475.836H162.4C162.533 477.209 163.32 478.009 164.547 478.009C165.467 478.009 166.187 477.543 166.467 476.769ZM164.573 472.863C163.333 472.863 162.573 473.623 162.413 474.916H166.413C166.547 473.663 165.867 472.863 164.573 472.863ZM171.797 471.956C172.757 471.956 173.357 472.703 173.357 473.636C173.357 474.036 173.251 474.396 173.104 474.703H172.024C172.211 474.423 172.277 474.129 172.277 473.863C172.277 473.289 171.944 472.929 171.437 472.929C170.584 472.929 170.011 473.969 170.011 475.543V478.783H168.997V472.116H170.011V473.276C170.397 472.436 171.011 471.956 171.797 471.956ZM176.959 478.943C175.146 478.943 173.919 477.969 174.106 476.263H175.079C174.919 477.369 175.666 478.076 176.986 478.076C177.986 478.076 178.639 477.663 178.639 477.023C178.639 475.343 174.199 476.436 174.199 474.023C174.199 472.756 175.412 471.956 176.892 471.956C178.639 471.956 179.812 473.049 179.492 474.423H178.519C178.746 473.489 177.972 472.823 176.852 472.823C175.946 472.823 175.239 473.249 175.239 473.916C175.239 475.543 179.679 474.423 179.679 476.916C179.679 478.183 178.572 478.943 176.959 478.943ZM181.709 478.916C181.202 478.916 180.815 478.529 180.815 478.023C180.815 477.516 181.202 477.129 181.709 477.129C182.215 477.129 182.602 477.516 182.602 478.023C182.602 478.529 182.215 478.916 181.709 478.916ZM188.939 474.356V477.796H194.179V478.783H187.859V469.449H194.046V470.436H188.939V473.369H193.339V474.356H188.939ZM198.144 478.943C196.331 478.943 195.104 477.969 195.291 476.263H196.264C196.104 477.369 196.851 478.076 198.171 478.076C199.171 478.076 199.824 477.663 199.824 477.023C199.824 475.343 195.384 476.436 195.384 474.023C195.384 472.756 196.597 471.956 198.077 471.956C199.824 471.956 200.997 473.049 200.677 474.423H199.704C199.931 473.489 199.157 472.823 198.037 472.823C197.131 472.823 196.424 473.249 196.424 473.916C196.424 475.543 200.864 474.423 200.864 476.916C200.864 478.183 199.757 478.943 198.144 478.943ZM205.094 478.943C203.147 478.943 201.854 477.543 201.854 475.449C201.854 473.356 203.134 471.956 205.16 471.956C207.174 471.956 208.227 473.369 207.894 475.236H206.814C207.054 473.783 206.4 472.889 205.134 472.889C203.787 472.889 202.934 473.916 202.934 475.449C202.934 476.983 203.8 478.009 205.094 478.009C206.107 478.009 206.84 477.369 207.12 476.383H208.227C207.96 477.676 206.947 478.943 205.094 478.943ZM212.318 471.956C213.278 471.956 213.878 472.703 213.878 473.636C213.878 474.036 213.771 474.396 213.625 474.703H212.545C212.731 474.423 212.798 474.129 212.798 473.863C212.798 473.289 212.465 472.929 211.958 472.929C211.105 472.929 210.531 473.969 210.531 475.543V478.783H209.518V472.116H210.531V473.276C210.918 472.436 211.531 471.956 212.318 471.956ZM217.841 478.943C215.894 478.943 214.601 477.543 214.601 475.449C214.601 473.356 215.894 471.956 217.841 471.956C219.774 471.956 221.068 473.356 221.068 475.449C221.068 477.543 219.774 478.943 217.841 478.943ZM217.841 478.009C219.121 478.009 219.988 476.983 219.988 475.449C219.988 473.916 219.121 472.889 217.841 472.889C216.548 472.889 215.681 473.916 215.681 475.449C215.681 476.983 216.548 478.009 217.841 478.009ZM228.85 477.449L230.557 472.116H231.597L229.397 478.783H228.317L226.61 473.663L224.93 478.783H223.837L221.61 472.116H222.69L224.383 477.463L226.09 472.116H227.157L228.85 477.449ZM239.31 471.956C241.083 471.956 242.323 473.356 242.323 475.449C242.323 477.556 241.07 478.943 239.31 478.943C238.283 478.943 237.47 478.463 236.977 477.649V481.449H235.963V472.116H236.977V473.249C237.47 472.436 238.283 471.956 239.31 471.956ZM239.083 478.009C240.377 478.009 241.243 476.983 241.243 475.449C241.243 473.916 240.377 472.889 239.083 472.889C237.79 472.889 236.937 473.916 236.937 475.449C236.937 476.983 237.79 478.009 239.083 478.009ZM246.35 471.956C248.19 471.956 249.056 473.196 249.056 474.996V478.783H248.056V477.569C247.576 478.423 246.736 478.943 245.643 478.943C244.296 478.943 243.35 478.156 243.35 476.969C243.35 475.636 244.523 474.809 246.35 474.809C246.923 474.809 247.523 474.889 248.043 475.036V474.983C248.043 473.796 247.63 472.889 246.336 472.889C245.336 472.889 244.683 473.423 244.923 474.423H243.843C243.483 473.009 244.67 471.956 246.35 471.956ZM245.75 478.036C246.963 478.036 247.923 477.209 248.043 475.929C247.563 475.783 246.976 475.689 246.43 475.689C245.15 475.689 244.43 476.209 244.43 477.009C244.43 477.663 244.923 478.036 245.75 478.036ZM252.867 477.943L254.774 472.116H255.814L253.36 479.343C252.894 480.729 252.147 481.556 250.934 481.556C250.56 481.556 250.174 481.476 249.88 481.356V480.423C250.2 480.556 250.507 480.623 250.827 480.623C251.72 480.623 252.107 480.009 252.334 479.343L252.4 479.129L249.734 472.116H250.814L252.867 477.943ZM264.157 471.956C265.531 471.956 266.237 472.929 266.237 474.396V478.783H265.224V474.663C265.224 473.623 264.784 472.929 263.891 472.929C262.784 472.929 262.011 473.969 262.011 475.569V478.783H260.997V474.663C260.997 473.623 260.557 472.929 259.664 472.929C258.557 472.929 257.784 473.969 257.784 475.569V478.783H256.771V472.116H257.784V473.329C258.131 472.596 258.837 471.956 259.931 471.956C260.944 471.956 261.624 472.529 261.891 473.436C262.304 472.516 263.144 471.956 264.157 471.956ZM272.678 476.769H273.784C273.398 478.116 272.291 478.943 270.771 478.943C268.784 478.943 267.518 477.556 267.518 475.449C267.518 473.343 268.798 471.956 270.824 471.956C273.064 471.956 274.078 473.649 273.518 475.836H268.611C268.744 477.209 269.531 478.009 270.758 478.009C271.678 478.009 272.398 477.543 272.678 476.769ZM270.784 472.863C269.544 472.863 268.784 473.623 268.624 474.916H272.624C272.758 473.663 272.078 472.863 270.784 472.863ZM278.635 471.956C280.755 471.956 280.755 474.036 280.755 475.143V478.783H279.741V475.196C279.741 474.263 279.741 472.929 278.328 472.929C277.075 472.929 276.221 473.983 276.221 475.569V478.783H275.208V472.116H276.221V473.423C276.715 472.503 277.581 471.956 278.635 471.956ZM285.759 472.116V473.036H283.879V476.876C283.879 477.503 283.986 478.009 284.812 478.009C285.119 478.009 285.386 477.943 285.626 477.849V478.769C285.359 478.863 285.012 478.943 284.639 478.943C282.879 478.943 282.866 477.423 282.866 476.889V473.036H281.666V472.116H282.866V470.396H283.879V472.116H285.759ZM289.472 478.943C287.659 478.943 286.432 477.969 286.619 476.263H287.592C287.432 477.369 288.179 478.076 289.499 478.076C290.499 478.076 291.152 477.663 291.152 477.023C291.152 475.343 286.712 476.436 286.712 474.023C286.712 472.756 287.925 471.956 289.405 471.956C291.152 471.956 292.325 473.049 292.005 474.423H291.032C291.259 473.489 290.485 472.823 289.365 472.823C288.459 472.823 287.752 473.249 287.752 473.916C287.752 475.543 292.192 474.423 292.192 476.916C292.192 478.183 291.085 478.943 289.472 478.943ZM299.154 477.583L301.154 472.116H302.194L299.714 478.783H298.554L296.074 472.116H297.154L299.154 477.583ZM303.711 470.983C303.271 470.983 302.938 470.649 302.938 470.209C302.938 469.783 303.271 469.449 303.711 469.449C304.138 469.449 304.471 469.783 304.471 470.209C304.471 470.649 304.138 470.983 303.711 470.983ZM304.218 478.783H303.204V472.116H304.218V478.783ZM308.641 471.956C310.481 471.956 311.348 473.196 311.348 474.996V478.783H310.348V477.569C309.868 478.423 309.028 478.943 307.935 478.943C306.588 478.943 305.641 478.156 305.641 476.969C305.641 475.636 306.815 474.809 308.641 474.809C309.215 474.809 309.815 474.889 310.335 475.036V474.983C310.335 473.796 309.921 472.889 308.628 472.889C307.628 472.889 306.975 473.423 307.215 474.423H306.135C305.775 473.009 306.961 471.956 308.641 471.956ZM308.041 478.036C309.255 478.036 310.215 477.209 310.335 475.929C309.855 475.783 309.268 475.689 308.721 475.689C307.441 475.689 306.721 476.209 306.721 477.009C306.721 477.663 307.215 478.036 308.041 478.036ZM114.194 488.449H118.34C120.194 488.449 121.22 489.369 121.22 491.036C121.22 492.703 120.194 493.649 118.327 493.649H115.274V497.783H114.194V488.449ZM115.274 492.663H118.34C119.487 492.663 120.114 492.063 120.114 491.036C120.114 489.996 119.487 489.436 118.34 489.436H115.274V492.663ZM125.002 490.956C126.842 490.956 127.709 492.196 127.709 493.996V497.783H126.709V496.569C126.229 497.423 125.389 497.943 124.295 497.943C122.949 497.943 122.002 497.156 122.002 495.969C122.002 494.636 123.175 493.809 125.002 493.809C125.575 493.809 126.175 493.889 126.695 494.036V493.983C126.695 492.796 126.282 491.889 124.989 491.889C123.989 491.889 123.335 492.423 123.575 493.423H122.495C122.135 492.009 123.322 490.956 125.002 490.956ZM124.402 497.036C125.615 497.036 126.575 496.209 126.695 494.929C126.215 494.783 125.629 494.689 125.082 494.689C123.802 494.689 123.082 495.209 123.082 496.009C123.082 496.663 123.575 497.036 124.402 497.036ZM131.519 496.943L133.426 491.116H134.466L132.013 498.343C131.546 499.729 130.799 500.556 129.586 500.556C129.213 500.556 128.826 500.476 128.533 500.356V499.423C128.853 499.556 129.159 499.623 129.479 499.623C130.373 499.623 130.759 499.009 130.986 498.343L131.053 498.129L128.386 491.116H129.466L131.519 496.943ZM137.773 497.943C135.959 497.943 134.733 496.969 134.919 495.263H135.893C135.733 496.369 136.479 497.076 137.799 497.076C138.799 497.076 139.453 496.663 139.453 496.023C139.453 494.343 135.013 495.436 135.013 493.023C135.013 491.756 136.226 490.956 137.706 490.956C139.453 490.956 140.626 492.049 140.306 493.423H139.333C139.559 492.489 138.786 491.823 137.666 491.823C136.759 491.823 136.053 492.249 136.053 492.916C136.053 494.543 140.493 493.423 140.493 495.916C140.493 497.183 139.386 497.943 137.773 497.943ZM145.206 491.116V492.036H143.326V495.876C143.326 496.503 143.432 497.009 144.259 497.009C144.566 497.009 144.832 496.943 145.072 496.849V497.769C144.806 497.863 144.459 497.943 144.086 497.943C142.326 497.943 142.312 496.423 142.312 495.889V492.036H141.112V491.116H142.312V489.396H143.326V491.116H145.206ZM149.052 490.956C150.892 490.956 151.758 492.196 151.758 493.996V497.783H150.758V496.569C150.278 497.423 149.438 497.943 148.345 497.943C146.998 497.943 146.052 497.156 146.052 495.969C146.052 494.636 147.225 493.809 149.052 493.809C149.625 493.809 150.225 493.889 150.745 494.036V493.983C150.745 492.796 150.332 491.889 149.038 491.889C148.038 491.889 147.385 492.423 147.625 493.423H146.545C146.185 492.009 147.372 490.956 149.052 490.956ZM148.452 497.036C149.665 497.036 150.625 496.209 150.745 494.929C150.265 494.783 149.678 494.689 149.132 494.689C147.852 494.689 147.132 495.209 147.132 496.009C147.132 496.663 147.625 497.036 148.452 497.036ZM156.272 497.943C154.325 497.943 153.032 496.543 153.032 494.449C153.032 492.356 154.312 490.956 156.339 490.956C158.352 490.956 159.405 492.369 159.072 494.236H157.992C158.232 492.783 157.579 491.889 156.312 491.889C154.965 491.889 154.112 492.916 154.112 494.449C154.112 495.983 154.979 497.009 156.272 497.009C157.285 497.009 158.019 496.369 158.299 495.383H159.405C159.139 496.676 158.125 497.943 156.272 497.943ZM164.523 495.316C165.523 495.689 166.296 496.529 166.616 497.783H165.443C165.15 496.476 164.203 495.703 162.95 495.703V494.876C164.296 494.876 165.176 494.169 165.176 493.196C165.176 492.369 164.563 491.929 163.776 491.929C162.576 491.929 161.71 492.969 161.71 494.569V497.783H160.696V488.449H161.71V492.423C162.15 491.503 163.003 490.956 164.043 490.956C165.363 490.956 166.256 491.836 166.256 493.103C166.256 494.183 165.59 494.983 164.523 495.316ZM168.668 497.916C168.162 497.916 167.775 497.529 167.775 497.023C167.775 496.516 168.162 496.129 168.668 496.129C169.175 496.129 169.562 496.516 169.562 497.023C169.562 497.529 169.175 497.916 168.668 497.916ZM175.899 488.449V496.796H181.139V497.783H174.819V488.449H175.899ZM183.002 489.983C182.562 489.983 182.228 489.649 182.228 489.209C182.228 488.783 182.562 488.449 183.002 488.449C183.428 488.449 183.762 488.783 183.762 489.209C183.762 489.649 183.428 489.983 183.002 489.983ZM183.508 497.783H182.495V491.116H183.508V497.783ZM187.598 496.583L189.598 491.116H190.638L188.158 497.783H186.998L184.518 491.116H185.598L187.598 496.583ZM196.278 495.769H197.385C196.998 497.116 195.891 497.943 194.371 497.943C192.385 497.943 191.118 496.556 191.118 494.449C191.118 492.343 192.398 490.956 194.425 490.956C196.665 490.956 197.678 492.649 197.118 494.836H192.211C192.345 496.209 193.131 497.009 194.358 497.009C195.278 497.009 195.998 496.543 196.278 495.769ZM194.385 491.863C193.145 491.863 192.385 492.623 192.225 493.916H196.225C196.358 492.663 195.678 491.863 194.385 491.863ZM205.061 497.943C203.114 497.943 201.821 496.543 201.821 494.449C201.821 492.356 203.114 490.956 205.061 490.956C206.994 490.956 208.288 492.356 208.288 494.449C208.288 496.543 206.994 497.943 205.061 497.943ZM205.061 497.009C206.341 497.009 207.208 495.983 207.208 494.449C207.208 492.916 206.341 491.889 205.061 491.889C203.768 491.889 202.901 492.916 202.901 494.449C202.901 495.983 203.768 497.009 205.061 497.009ZM213.053 490.956C214.827 490.956 216.067 492.356 216.067 494.449C216.067 496.556 214.813 497.943 213.053 497.943C212.027 497.943 211.213 497.463 210.72 496.649V500.449H209.707V491.116H210.72V492.249C211.213 491.436 212.027 490.956 213.053 490.956ZM212.827 497.009C214.12 497.009 214.987 495.983 214.987 494.449C214.987 492.916 214.12 491.889 212.827 491.889C211.533 491.889 210.68 492.916 210.68 494.449C210.68 495.983 211.533 497.009 212.827 497.009ZM219.973 497.943C218.16 497.943 216.933 496.969 217.12 495.263H218.093C217.933 496.369 218.68 497.076 220 497.076C221 497.076 221.653 496.663 221.653 496.023C221.653 494.343 217.213 495.436 217.213 493.023C217.213 491.756 218.427 490.956 219.907 490.956C221.653 490.956 222.827 492.049 222.507 493.423H221.533C221.76 492.489 220.987 491.823 219.867 491.823C218.96 491.823 218.253 492.249 218.253 492.916C218.253 494.543 222.693 493.423 222.693 495.916C222.693 497.183 221.587 497.943 219.973 497.943ZM232.402 492.289V488.449H233.416V497.783H232.402V496.609C231.896 497.449 231.069 497.943 230.029 497.943C228.269 497.943 227.042 496.556 227.042 494.449C227.042 492.356 228.256 490.956 230.029 490.956C231.082 490.956 231.909 491.449 232.402 492.289ZM230.282 497.009C231.576 497.009 232.442 495.983 232.442 494.449C232.442 492.916 231.576 491.889 230.282 491.889C228.989 491.889 228.122 492.916 228.122 494.449C228.122 495.983 228.989 497.009 230.282 497.009ZM237.776 490.956C239.616 490.956 240.482 492.196 240.482 493.996V497.783H239.482V496.569C239.002 497.423 238.162 497.943 237.069 497.943C235.722 497.943 234.776 497.156 234.776 495.969C234.776 494.636 235.949 493.809 237.776 493.809C238.349 493.809 238.949 493.889 239.469 494.036V493.983C239.469 492.796 239.056 491.889 237.762 491.889C236.762 491.889 236.109 492.423 236.349 493.423H235.269C234.909 492.009 236.096 490.956 237.776 490.956ZM237.176 497.036C238.389 497.036 239.349 496.209 239.469 494.929C238.989 494.783 238.402 494.689 237.856 494.689C236.576 494.689 235.856 495.209 235.856 496.009C235.856 496.663 236.349 497.036 237.176 497.036ZM244.583 497.943C242.769 497.943 241.543 496.969 241.729 495.263H242.703C242.543 496.369 243.289 497.076 244.609 497.076C245.609 497.076 246.263 496.663 246.263 496.023C246.263 494.343 241.823 495.436 241.823 493.023C241.823 491.756 243.036 490.956 244.516 490.956C246.263 490.956 247.436 492.049 247.116 493.423H246.143C246.369 492.489 245.596 491.823 244.476 491.823C243.569 491.823 242.863 492.249 242.863 492.916C242.863 494.543 247.303 493.423 247.303 495.916C247.303 497.183 246.196 497.943 244.583 497.943ZM251.999 490.956C253.506 490.956 254.186 492.089 254.186 493.769V497.783H253.172V493.769C253.172 492.649 252.759 491.929 251.719 491.929C250.506 491.929 249.652 492.969 249.652 494.569V497.783H248.639V488.449H249.652V492.423C250.092 491.503 250.946 490.956 251.999 490.956ZM259.16 490.956C260.934 490.956 262.174 492.356 262.174 494.449C262.174 496.556 260.92 497.943 259.16 497.943C258.134 497.943 257.32 497.463 256.827 496.649V497.783H255.814V488.449H256.827V492.249C257.32 491.436 258.134 490.956 259.16 490.956ZM258.934 497.009C260.254 497.009 261.094 495.983 261.094 494.449C261.094 492.889 260.227 491.889 258.947 491.889C257.64 491.889 256.787 492.916 256.787 494.449C256.787 495.983 257.64 497.009 258.934 497.009ZM266.493 497.943C264.547 497.943 263.253 496.543 263.253 494.449C263.253 492.356 264.547 490.956 266.493 490.956C268.427 490.956 269.72 492.356 269.72 494.449C269.72 496.543 268.427 497.943 266.493 497.943ZM266.493 497.009C267.773 497.009 268.64 495.983 268.64 494.449C268.64 492.916 267.773 491.889 266.493 491.889C265.2 491.889 264.333 492.916 264.333 494.449C264.333 495.983 265.2 497.009 266.493 497.009ZM273.739 490.956C275.579 490.956 276.446 492.196 276.446 493.996V497.783H275.446V496.569C274.966 497.423 274.126 497.943 273.032 497.943C271.686 497.943 270.739 497.156 270.739 495.969C270.739 494.636 271.912 493.809 273.739 493.809C274.312 493.809 274.912 493.889 275.432 494.036V493.983C275.432 492.796 275.019 491.889 273.726 491.889C272.726 491.889 272.072 492.423 272.312 493.423H271.232C270.872 492.009 272.059 490.956 273.739 490.956ZM273.139 497.036C274.352 497.036 275.312 496.209 275.432 494.929C274.952 494.783 274.366 494.689 273.819 494.689C272.539 494.689 271.819 495.209 271.819 496.009C271.819 496.663 272.312 497.036 273.139 497.036ZM280.866 490.956C281.826 490.956 282.426 491.703 282.426 492.636C282.426 493.036 282.32 493.396 282.173 493.703H281.093C281.28 493.423 281.346 493.129 281.346 492.863C281.346 492.289 281.013 491.929 280.506 491.929C279.653 491.929 279.08 492.969 279.08 494.543V497.783H278.066V491.116H279.08V492.276C279.466 491.436 280.08 490.956 280.866 490.956ZM288.509 492.289V488.449H289.523V497.783H288.509V496.609C288.003 497.449 287.176 497.943 286.136 497.943C284.376 497.943 283.149 496.556 283.149 494.449C283.149 492.356 284.363 490.956 286.136 490.956C287.189 490.956 288.016 491.449 288.509 492.289ZM286.389 497.009C287.683 497.009 288.549 495.983 288.549 494.449C288.549 492.916 287.683 491.889 286.389 491.889C285.096 491.889 284.229 492.916 284.229 494.449C284.229 495.983 285.096 497.009 286.389 497.009ZM291.976 497.916C291.469 497.916 291.082 497.529 291.082 497.023C291.082 496.516 291.469 496.129 291.976 496.129C292.482 496.129 292.869 496.516 292.869 497.023C292.869 497.529 292.482 497.916 291.976 497.916Z" fill="#F7F7F7"/>
<rect x="90.2666" y="262.46" width="332.4" height="175.426" rx="40" transform="rotate(-30.3205 90.2666 262.46)" fill="white" fill-opacity="0.4"/>
<g clip-path="url(#clip8_4764_3757)">
<rect x="63.6006" y="322.069" width="465.403" height="97.8288" rx="48.9144" transform="rotate(-30.3205 63.6006 322.069)" fill="white"/>
<rect x="90.1797" y="327.521" width="60" height="60" rx="30" transform="rotate(-29.0768 90.1797 327.521)" fill="#8803E0" fill-opacity="0.1"/>
<circle cx="130.978" cy="339.16" r="26.6667" transform="rotate(-29.0768 130.978 339.16)" fill="#8803E0" fill-opacity="0.16"/>
<rect x="99.2461" y="330.107" width="46.6667" height="46.6667" rx="23.3333" transform="rotate(-29.0768 99.2461 330.107)" fill="#8803E0"/>
<path d="M139.275 341.221C140.281 340.662 140.643 339.393 140.084 338.388C139.525 337.382 138.256 337.02 137.25 337.579C136.245 338.139 135.883 339.407 136.442 340.413C137.001 341.418 138.27 341.78 139.275 341.221Z" stroke="white"/>
<path d="M135.167 342.552C134.724 342.214 134.342 341.781 134.054 341.263C132.936 339.252 133.66 336.715 135.671 335.597C135.92 335.458 136.178 335.348 136.44 335.265" stroke="white" stroke-linecap="round"/>
<path d="M128.351 347.296C129.356 346.736 129.718 345.468 129.159 344.462C128.6 343.457 127.331 343.095 126.326 343.654C125.32 344.213 124.958 345.482 125.517 346.487C126.077 347.493 127.345 347.855 128.351 347.296Z" stroke="white"/>
<path d="M125.962 339.689L127.219 338.99C127.551 338.806 127.81 338.514 127.953 338.162L128.689 336.352C128.761 336.176 128.89 336.03 129.056 335.938L131.34 334.668L131.379 339.394C131.381 339.699 131.217 339.981 130.951 340.129L129.562 340.901M125.962 339.689L124.192 340.674M125.962 339.689L129.562 340.901M129.562 340.901L128.956 344.098" stroke="white" stroke-linecap="round" stroke-linejoin="round"/>
<path d="M134.215 336.407L129.892 333.792C129.31 333.44 129.019 333.263 128.703 333.211C128.543 333.185 128.38 333.182 128.22 333.202C127.901 333.243 127.604 333.408 127.01 333.739" stroke="white" stroke-linecap="round" stroke-linejoin="round"/>
<path d="M164.97 312.252C167.566 310.72 170.642 311.694 172.462 314.779C174.294 317.882 173.65 321.026 171.054 322.559C169.59 323.423 168.046 323.439 166.656 322.733L169.859 328.16L167.633 329.473L159.568 315.809L161.794 314.496L162.681 315.999C162.746 314.46 163.506 313.116 164.97 312.252ZM169.288 320.995C170.948 320.016 171.28 318.082 170.14 316.15C168.999 314.217 167.157 313.594 165.498 314.573C163.858 315.541 163.514 317.455 164.654 319.387C165.795 321.32 167.649 321.963 169.288 320.995ZM181.724 316.261C178.737 318.024 175.525 317.13 173.705 314.045C171.884 310.961 172.654 307.717 175.64 305.954C178.607 304.203 181.839 305.085 183.66 308.169C185.48 311.254 184.691 314.509 181.724 316.261ZM180.572 314.309C182.153 313.375 182.478 311.473 181.337 309.54C180.196 307.608 178.374 306.973 176.793 307.906C175.192 308.851 174.887 310.742 176.027 312.674C177.168 314.607 178.971 315.253 180.572 314.309ZM182.843 300.176C182.043 300.648 181.05 300.392 180.577 299.592C180.105 298.792 180.361 297.798 181.161 297.326C181.962 296.854 182.955 297.11 183.427 297.91C183.9 298.71 183.644 299.704 182.843 300.176ZM190.527 310.696L188.302 312.01L182.541 302.25L184.766 300.936L190.527 310.696ZM192.382 296.073C195.524 294.218 197.356 297.321 198.22 298.785L201.446 304.251L199.221 305.564L196.03 300.157C195.373 299.045 194.44 297.464 192.722 298.478C191.238 299.353 190.987 301.291 192.163 303.282L194.985 308.065L192.76 309.378L186.999 299.618L189.224 298.305L190.284 300.101C190.168 298.432 190.898 296.948 192.382 296.073ZM203.536 289.858L204.676 291.79L201.885 293.438L204.685 298.181C205.157 298.981 205.709 299.471 206.783 298.837C207.291 298.538 207.6 298.171 207.884 297.714L209.036 299.666C208.733 300.134 208.209 300.628 207.506 301.043C204.597 302.76 203.093 300.568 202.471 299.514L199.66 294.751L197.805 295.846L196.665 293.913L198.519 292.819L196.987 290.222L199.212 288.909L200.744 291.505L203.536 289.858ZM228.21 288.454L225.75 289.906L222.77 287.533L216.484 291.242L217.142 294.987L214.585 296.496L211.907 279.652L214.776 277.959L228.21 288.454ZM214.719 281.072L216.071 288.802L220.853 285.979L214.719 281.072ZM234.24 272.813C236.245 276.21 234.704 280.199 232.165 283.434L238.314 279.805L239.489 281.796L229.417 287.741L228.265 285.789C232.17 280.589 233.482 277.104 231.823 274.293C230.844 272.633 229.185 271.875 227.39 272.935C225.633 273.972 225.433 275.774 226.482 277.551C227.115 278.624 228.008 279.334 229.12 279.836L226.602 281.322C225.603 280.833 224.721 280.143 223.996 278.913C222.29 276.024 222.967 272.756 226.149 270.878C229.37 268.976 232.593 270.022 234.24 272.813ZM246.311 267.794C248.328 267.288 250.007 267.903 251.033 269.64C252.473 272.08 251.478 274.72 248.296 276.598L242.03 280.296L233.965 266.632L240.212 262.946C242.866 261.379 245.146 261.718 246.425 263.884C247.254 265.29 247.175 266.626 246.311 267.794ZM244.169 265.637C243.512 264.524 242.499 264.28 241.387 264.937L237.502 267.229L239.588 270.762L243.472 268.47C244.585 267.813 244.826 266.75 244.169 265.637ZM243.217 276.911L247.101 274.618C248.78 273.628 249.284 272.251 248.489 270.904C247.728 269.616 246.323 269.419 244.702 270.376L240.74 272.714L243.217 276.911ZM256.452 272.073C255.554 272.603 254.468 272.323 253.938 271.426C253.408 270.528 253.699 269.461 254.597 268.931C255.495 268.401 256.57 268.661 257.1 269.559C257.63 270.457 257.35 271.543 256.452 272.073ZM264.322 267.508C261.335 269.27 258.123 268.376 256.302 265.292C254.47 262.189 255.232 258.975 258.316 257.155C261.4 255.334 264.515 256.286 265.544 259.679L263.299 261.004C262.53 258.853 261.05 258.174 259.449 259.118C257.77 260.109 257.485 261.989 258.625 263.921C259.766 265.854 261.569 266.5 263.189 265.544C264.36 264.853 264.765 263.666 264.53 262.331L266.931 260.914C267.661 263.22 267.035 265.906 264.322 267.508ZM275.244 261.06C272.258 262.823 269.046 261.929 267.225 258.845C265.405 255.761 266.174 252.517 269.161 250.754C272.128 249.002 275.36 249.885 277.18 252.969C279.001 256.053 278.211 259.309 275.244 261.06ZM274.092 259.108C275.673 258.175 275.998 256.273 274.857 254.34C273.717 252.408 271.894 251.773 270.313 252.706C268.713 253.651 268.407 255.542 269.548 257.474C270.689 259.406 272.492 260.053 274.092 259.108ZM287.183 240.117C289.193 238.93 291.1 239.752 292.506 242.134L296.169 248.341L293.944 249.654L290.419 243.681C289.681 242.432 288.659 241.904 287.605 242.526C286.258 243.321 286.081 245.162 287.256 247.153L290.079 251.936L287.854 253.249L284.328 247.276C283.579 246.007 282.545 245.459 281.472 246.093C280.164 246.865 279.94 248.76 281.139 250.791L283.95 255.553L281.725 256.867L275.964 247.107L278.189 245.793L279.215 247.531C279.042 246.079 279.628 244.575 281.131 243.688C282.556 242.847 284.063 243.037 285.222 244.064C285.028 242.441 285.719 240.981 287.183 240.117Z" fill="#0F0F0F"/>
</g>
</g>
<path d="M356.933 574.437V568.921C356.933 566.499 356.933 565.288 357.714 564.535C358.495 563.783 359.752 563.783 362.266 563.783C364.78 563.783 366.037 563.783 366.818 564.535C367.599 565.288 367.599 566.499 367.599 568.921V574.437C367.599 575.974 367.599 576.743 367.084 577.018C366.086 577.551 364.215 575.773 363.326 575.238C362.81 574.927 362.553 574.772 362.266 574.772C361.979 574.772 361.721 574.927 361.206 575.238C360.317 575.773 358.446 577.551 357.448 577.018C356.933 576.743 356.933 575.974 356.933 574.437Z" stroke="#0F0F0F" stroke-linecap="round" stroke-linejoin="round"/>
<circle cx="61.2672" cy="118.783" r="141.667" fill="white" fill-opacity="0.14"/>
<path d="M39.3747 144.151C40.7645 144.151 41.8911 143.024 41.8911 141.634C41.8911 140.245 40.7645 139.118 39.3747 139.118C37.985 139.118 36.8584 140.245 36.8584 141.634C36.8584 143.024 37.985 144.151 39.3747 144.151Z" stroke="#8803E0" stroke-width="0.686275" stroke-linecap="round" stroke-linejoin="round"/>
<path d="M46.9245 144.151C48.3143 144.151 49.4409 143.024 49.4409 141.634C49.4409 140.245 48.3143 139.118 46.9245 139.118C45.5348 139.118 44.4082 140.245 44.4082 141.634C44.4082 143.024 45.5348 144.151 46.9245 144.151Z" stroke="#8803E0" stroke-width="0.686275" stroke-linecap="round" stroke-linejoin="round"/>
<path d="M39.375 141.634H42.1245C42.3507 141.634 42.5596 141.513 42.6713 141.316L45.3513 136.602" stroke="#8803E0" stroke-width="0.686275" stroke-linecap="round" stroke-linejoin="round"/>
<path d="M43.1497 139.747L40.0043 135.973M40.0043 135.973H38.7461M40.0043 135.973H41.2624" stroke="#8803E0" stroke-width="0.686275" stroke-linecap="round" stroke-linejoin="round"/>
<path d="M48.1851 135.479C48.0568 135.117 47.8303 134.551 47.0754 134.287C46.5847 134.098 45.3769 134.022 45.2259 134.136C45.0075 134.19 44.9994 134.438 45.1051 134.777C45.191 135.142 45.324 135.611 45.4448 136.061C45.7543 137.212 46.4337 139.707 46.9395 141.632" stroke="#8803E0" stroke-width="0.686275" stroke-linecap="round"/>
<path d="M53.7186 134.509H58.1657C60.4304 134.509 61.7617 135.634 61.7617 137.638C61.7617 139.642 60.4304 140.85 58.1657 140.85H56.0519V144.116H53.7186V134.509ZM56.0519 138.997H58.1657C58.948 138.997 59.3598 138.53 59.3598 137.665C59.3598 136.801 58.948 136.362 58.1657 136.362H56.0519V138.997ZM67.5097 144.336C64.6274 144.336 62.5823 142.25 62.5823 139.299C62.5823 136.348 64.6274 134.289 67.5097 134.289C70.3921 134.289 72.4234 136.348 72.4234 139.299C72.4234 142.25 70.3921 144.336 67.5097 144.336ZM67.496 142.414C69.0195 142.414 70.0215 141.179 70.0215 139.299C70.0215 137.432 69.0195 136.211 67.496 136.211C65.9725 136.211 64.9842 137.432 64.9842 139.299C64.9842 141.179 65.9725 142.414 67.496 142.414ZM76.2649 144.116H73.9315V134.509H76.2649V144.116ZM84.4805 141.097V134.509H86.8139V144.116H83.6021L80.5139 136.965V144.116H78.1805V134.509H81.6394L84.4805 141.097ZM88.043 134.509H96.8548V136.362H93.6156V144.116H91.2823V136.362H88.043V134.509ZM110.582 144.116H108.207L107.59 142.442H103.445L102.827 144.116H100.356L104.062 134.509H106.876L110.582 144.116ZM105.517 136.869L104.131 140.589H106.903L105.517 136.869ZM118.678 137.762C118.678 140.164 116.757 141.358 114.753 142.264H118.678V144.116H111.363V142.332C114.794 140.562 116.276 139.724 116.276 137.83C116.276 136.787 115.837 136.211 114.959 136.211C113.998 136.211 113.6 136.883 113.6 137.762C113.6 138.311 113.765 138.86 114.066 139.34H111.651C111.363 138.86 111.198 138.324 111.198 137.638C111.198 135.62 112.666 134.289 114.945 134.289C117.223 134.289 118.678 135.634 118.678 137.762ZM126.57 138.928C127.765 139.285 128.382 140.095 128.382 141.33C128.382 143.169 127.023 144.116 124.415 144.116H120.188V134.509H124.415C126.68 134.509 127.833 135.373 127.833 136.965C127.833 137.94 127.408 138.599 126.57 138.928ZM125.431 137.254C125.431 136.622 125.115 136.362 124.415 136.362H122.521V138.228H124.415C125.115 138.228 125.431 137.913 125.431 137.254ZM122.521 142.264H124.415C125.486 142.264 125.98 141.893 125.98 141.111C125.98 140.342 125.486 139.999 124.415 139.999H122.521V142.264Z" fill="#0F0F0F"/>
<path d="M357.604 138.783V138.45M365.604 138.783V138.45M361.604 138.783V138.45M358.271 138.783C358.271 138.415 357.972 138.116 357.604 138.116C357.236 138.116 356.938 138.415 356.938 138.783C356.938 139.151 357.236 139.45 357.604 139.45C357.972 139.45 358.271 139.151 358.271 138.783ZM366.271 138.783C366.271 138.415 365.972 138.116 365.604 138.116C365.236 138.116 364.938 138.415 364.938 138.783C364.938 139.151 365.236 139.45 365.604 139.45C365.972 139.45 366.271 139.151 366.271 138.783ZM362.271 138.783C362.271 138.415 361.972 138.116 361.604 138.116C361.236 138.116 360.938 138.415 360.938 138.783C360.938 139.151 361.236 139.45 361.604 139.45C361.972 139.45 362.271 139.151 362.271 138.783Z" stroke="#0F0F0F" stroke-linecap="round" stroke-linejoin="round"/>
<path d="M42.5407 575.761C40.6599 574.355 36.9336 571.139 36.9336 568.246C36.9336 566.333 38.3371 564.783 40.2669 564.783C41.2669 564.783 42.2669 565.116 43.6003 566.45C44.9336 565.116 45.9336 564.783 46.9336 564.783C48.8634 564.783 50.2669 566.333 50.2669 568.246C50.2669 571.139 46.5407 574.355 44.6598 575.761C44.0269 576.235 43.1737 576.235 42.5407 575.761Z" fill="#8803E0" stroke="#8803E0" stroke-linecap="round" stroke-linejoin="round"/>
<path d="M72.6012 570.45C72.6012 573.948 69.7657 576.783 66.2679 576.783C65.1825 576.783 64.1608 576.51 63.2679 576.029C62.0224 575.358 61.1843 575.982 60.4452 576.094C60.3331 576.111 60.2214 576.07 60.1412 575.99C60.0195 575.868 59.9963 575.68 60.0636 575.521C60.3537 574.838 60.62 573.542 60.2568 572.45C60.0478 571.821 59.9346 571.149 59.9346 570.45C59.9346 566.952 62.7701 564.116 66.2679 564.116C69.7657 564.116 72.6012 566.952 72.6012 570.45Z" stroke="#0F0F0F" stroke-linecap="round" stroke-linejoin="round"/>
<path d="M88.8816 565.643C92.0645 564.558 93.6559 564.015 94.5119 564.871C95.3678 565.727 94.8253 567.319 93.7403 570.501L93.0013 572.669C92.1681 575.113 91.7514 576.336 91.0645 576.437C90.8799 576.464 90.6888 576.448 90.5061 576.389C89.8266 576.171 89.4674 574.882 88.749 572.305C88.5897 571.733 88.51 571.447 88.3285 571.229C88.2759 571.166 88.2175 571.107 88.1541 571.055C87.9358 570.873 87.6499 570.793 87.0783 570.634C84.501 569.916 83.2124 569.556 82.9942 568.877C82.9355 568.694 82.9192 568.503 82.9464 568.318C83.0475 567.632 84.2697 567.215 86.7141 566.382L88.8816 565.643Z" stroke="#0F0F0F"/>
</g>
<defs>
<filter id="filter0_f_4764_3757" x="402.934" y="257.213" width="2.93353" height="3.91204" filterUnits="userSpaceOnUse" color-interpolation-filters="sRGB">
<feFlood flood-opacity="0" result="BackgroundImageFix"/>
<feBlend mode="normal" in="SourceGraphic" in2="BackgroundImageFix" result="shape"/>
<feGaussianBlur stdDeviation="0.488998" result="effect1_foregroundBlur_4764_3757"/>
</filter>
<filter id="filter1_f_4764_3757" x="402.935" y="257.213" width="2.93353" height="94.8654" filterUnits="userSpaceOnUse" color-interpolation-filters="sRGB">
<feFlood flood-opacity="0" result="BackgroundImageFix"/>
<feBlend mode="normal" in="SourceGraphic" in2="BackgroundImageFix" result="shape"/>
<feGaussianBlur stdDeviation="0.488998" result="effect1_foregroundBlur_4764_3757"/>
</filter>
<filter id="filter2_f_4764_3757" x="402.935" y="254.279" width="4.88952" height="96.8214" filterUnits="userSpaceOnUse" color-interpolation-filters="sRGB">
<feFlood flood-opacity="0" result="BackgroundImageFix"/>
<feBlend mode="normal" in="SourceGraphic" in2="BackgroundImageFix" result="shape"/>
<feGaussianBlur stdDeviation="0.977995" result="effect1_foregroundBlur_4764_3757"/>
</filter>
<filter id="filter3_f_4764_3757" x="0.000520587" y="169.193" width="2.93353" height="3.91204" filterUnits="userSpaceOnUse" color-interpolation-filters="sRGB">
<feFlood flood-opacity="0" result="BackgroundImageFix"/>
<feBlend mode="normal" in="SourceGraphic" in2="BackgroundImageFix" result="shape"/>
<feGaussianBlur stdDeviation="0.488998" result="effect1_foregroundBlur_4764_3757"/>
</filter>
<filter id="filter4_f_4764_3757" x="0.000520587" y="169.193" width="2.93353" height="30.3178" filterUnits="userSpaceOnUse" color-interpolation-filters="sRGB">
<feFlood flood-opacity="0" result="BackgroundImageFix"/>
<feBlend mode="normal" in="SourceGraphic" in2="BackgroundImageFix" result="shape"/>
<feGaussianBlur stdDeviation="0.488998" result="effect1_foregroundBlur_4764_3757"/>
</filter>
<filter id="filter5_f_4764_3757" x="-1.95599" y="166.259" width="4.88952" height="37.1639" filterUnits="userSpaceOnUse" color-interpolation-filters="sRGB">
<feFlood flood-opacity="0" result="BackgroundImageFix"/>
<feBlend mode="normal" in="SourceGraphic" in2="BackgroundImageFix" result="shape"/>
<feGaussianBlur stdDeviation="0.977995" result="effect1_foregroundBlur_4764_3757"/>
</filter>
<filter id="filter6_f_4764_3757" x="0.000520587" y="234.719" width="2.93353" height="3.91204" filterUnits="userSpaceOnUse" color-interpolation-filters="sRGB">
<feFlood flood-opacity="0" result="BackgroundImageFix"/>
<feBlend mode="normal" in="SourceGraphic" in2="BackgroundImageFix" result="shape"/>
<feGaussianBlur stdDeviation="0.488998" result="effect1_foregroundBlur_4764_3757"/>
</filter>
<filter id="filter7_f_4764_3757" x="0.000520587" y="235.697" width="2.93353" height="53.7897" filterUnits="userSpaceOnUse" color-interpolation-filters="sRGB">
<feFlood flood-opacity="0" result="BackgroundImageFix"/>
<feBlend mode="normal" in="SourceGraphic" in2="BackgroundImageFix" result="shape"/>
<feGaussianBlur stdDeviation="0.488998" result="effect1_foregroundBlur_4764_3757"/>
</filter>
<filter id="filter8_f_4764_3757" x="-1.95599" y="232.763" width="4.88952" height="60.6356" filterUnits="userSpaceOnUse" color-interpolation-filters="sRGB">
<feFlood flood-opacity="0" result="BackgroundImageFix"/>
<feBlend mode="normal" in="SourceGraphic" in2="BackgroundImageFix" result="shape"/>
<feGaussianBlur stdDeviation="0.977995" result="effect1_foregroundBlur_4764_3757"/>
</filter>
<filter id="filter9_f_4764_3757" x="0.000520587" y="311.981" width="2.93353" height="3.91204" filterUnits="userSpaceOnUse" color-interpolation-filters="sRGB">
<feFlood flood-opacity="0" result="BackgroundImageFix"/>
<feBlend mode="normal" in="SourceGraphic" in2="BackgroundImageFix" result="shape"/>
<feGaussianBlur stdDeviation="0.488998" result="effect1_foregroundBlur_4764_3757"/>
</filter>
<filter id="filter10_f_4764_3757" x="0.000520587" y="312.959" width="2.93353" height="53.7897" filterUnits="userSpaceOnUse" color-interpolation-filters="sRGB">
<feFlood flood-opacity="0" result="BackgroundImageFix"/>
<feBlend mode="normal" in="SourceGraphic" in2="BackgroundImageFix" result="shape"/>
<feGaussianBlur stdDeviation="0.488998" result="effect1_foregroundBlur_4764_3757"/>
</filter>
<filter id="filter11_f_4764_3757" x="-1.95599" y="310.025" width="4.88952" height="60.6356" filterUnits="userSpaceOnUse" color-interpolation-filters="sRGB">
<feFlood flood-opacity="0" result="BackgroundImageFix"/>
<feBlend mode="normal" in="SourceGraphic" in2="BackgroundImageFix" result="shape"/>
<feGaussianBlur stdDeviation="0.977995" result="effect1_foregroundBlur_4764_3757"/>
</filter>
<filter id="filter12_f_4764_3757" x="-0.978386" y="-3.91198" width="407.824" height="832.274" filterUnits="userSpaceOnUse" color-interpolation-filters="sRGB">
<feFlood flood-opacity="0" result="BackgroundImageFix"/>
<feBlend mode="normal" in="SourceGraphic" in2="BackgroundImageFix" result="shape"/>
<feGaussianBlur stdDeviation="1.95599" result="effect1_foregroundBlur_4764_3757"/>
</filter>
<filter id="filter13_f_4764_3757" x="0.977604" y="-1.95599" width="403.912" height="828.362" filterUnits="userSpaceOnUse" color-interpolation-filters="sRGB">
<feFlood flood-opacity="0" result="BackgroundImageFix"/>
<feBlend mode="normal" in="SourceGraphic" in2="BackgroundImageFix" result="shape"/>
<feGaussianBlur stdDeviation="0.977995" result="effect1_foregroundBlur_4764_3757"/>
</filter>
<filter id="filter14_f_4764_3757" x="5.86725" y="2.93415" width="394.132" height="817.604" filterUnits="userSpaceOnUse" color-interpolation-filters="sRGB">
<feFlood flood-opacity="0" result="BackgroundImageFix"/>
<feBlend mode="normal" in="SourceGraphic" in2="BackgroundImageFix" result="shape"/>
<feGaussianBlur stdDeviation="0.977995" result="effect1_foregroundBlur_4764_3757"/>
</filter>
<filter id="filter15_f_4764_3757" x="-0.000262737" y="-2.93386" width="405.868" height="830.318" filterUnits="userSpaceOnUse" color-interpolation-filters="sRGB">
<feFlood flood-opacity="0" result="BackgroundImageFix"/>
<feBlend mode="normal" in="SourceGraphic" in2="BackgroundImageFix" result="shape"/>
<feGaussianBlur stdDeviation="3.42298" result="effect1_foregroundBlur_4764_3757"/>
</filter>
<linearGradient id="paint0_linear_4764_3757" x1="403.423" y1="353.056" x2="403.423" y2="348.655" gradientUnits="userSpaceOnUse">
<stop/>
<stop offset="1" stop-opacity="0"/>
</linearGradient>
<linearGradient id="paint1_linear_4764_3757" x1="400.978" y1="353.056" x2="404.401" y2="353.056" gradientUnits="userSpaceOnUse">
<stop/>
<stop offset="1" stop-color="#AEAEAE" stop-opacity="0"/>
</linearGradient>
<linearGradient id="paint2_linear_4764_3757" x1="403.423" y1="260.636" x2="403.423" y2="256.235" gradientUnits="userSpaceOnUse">
<stop stop-opacity="0"/>
<stop offset="1"/>
</linearGradient>
<linearGradient id="paint3_linear_4764_3757" x1="2.44499" y1="169.193" x2="2.44499" y2="172.127" gradientUnits="userSpaceOnUse">
<stop/>
<stop offset="1" stop-opacity="0"/>
</linearGradient>
<linearGradient id="paint4_linear_4764_3757" x1="4.88998" y1="169.193" x2="1.46699" y2="169.193" gradientUnits="userSpaceOnUse">
<stop/>
<stop offset="1" stop-color="#AEAEAE" stop-opacity="0"/>
</linearGradient>
<linearGradient id="paint5_linear_4764_3757" x1="2.44499" y1="194.325" x2="2.44499" y2="199.511" gradientUnits="userSpaceOnUse">
<stop stop-opacity="0"/>
<stop offset="1"/>
</linearGradient>
<linearGradient id="paint6_linear_4764_3757" x1="2.44499" y1="234.719" x2="2.44499" y2="238.631" gradientUnits="userSpaceOnUse">
<stop/>
<stop offset="1" stop-opacity="0"/>
</linearGradient>
<linearGradient id="paint7_linear_4764_3757" x1="4.88998" y1="234.719" x2="1.46699" y2="234.719" gradientUnits="userSpaceOnUse">
<stop/>
<stop offset="1" stop-color="#AEAEAE" stop-opacity="0"/>
</linearGradient>
<linearGradient id="paint8_linear_4764_3757" x1="2.44499" y1="285.575" x2="2.44499" y2="289.487" gradientUnits="userSpaceOnUse">
<stop stop-opacity="0"/>
<stop offset="1"/>
</linearGradient>
<linearGradient id="paint9_linear_4764_3757" x1="2.44499" y1="311.981" x2="2.44499" y2="315.893" gradientUnits="userSpaceOnUse">
<stop/>
<stop offset="1" stop-opacity="0"/>
</linearGradient>
<linearGradient id="paint10_linear_4764_3757" x1="4.88998" y1="311.981" x2="1.46699" y2="311.981" gradientUnits="userSpaceOnUse">
<stop/>
<stop offset="1" stop-color="#AEAEAE" stop-opacity="0"/>
</linearGradient>
<linearGradient id="paint11_linear_4764_3757" x1="2.44499" y1="362.836" x2="2.44499" y2="366.748" gradientUnits="userSpaceOnUse">
<stop stop-opacity="0"/>
<stop offset="1"/>
</linearGradient>
<linearGradient id="paint12_linear_4764_3757" x1="7.33457" y1="92.9097" x2="7.33457" y2="96.8216" gradientUnits="userSpaceOnUse">
<stop stop-color="#C7C7C7"/>
<stop offset="1" stop-color="white"/>
</linearGradient>
<linearGradient id="paint13_linear_4764_3757" x1="400.977" y1="84.1077" x2="400.977" y2="91.9316" gradientUnits="userSpaceOnUse">
<stop stop-color="#C7C7C7"/>
<stop offset="1" stop-color="white"/>
</linearGradient>
<radialGradient id="paint14_radial_4764_3757" cx="0" cy="0" r="1" gradientUnits="userSpaceOnUse" gradientTransform="translate(203.428 192.326) rotate(90) scale(334.521 374.712)">
<stop stop-color="#879194"/>
<stop offset="1"/>
</radialGradient>
<linearGradient id="paint15_linear_4764_3757" x1="146.333" y1="4.21951e-06" x2="146.333" y2="147.597" gradientUnits="userSpaceOnUse">
<stop offset="0.0599068" stop-color="#8803E0"/>
<stop offset="0.594584" stop-color="#8803E0" stop-opacity="0"/>
</linearGradient>
<clipPath id="clip0_4764_3757">
<path d="M405.868 352.078C405.868 353.159 404.992 354.034 403.912 354.034L400.978 354.034L400.978 256.235L403.912 256.235C404.992 256.235 405.868 257.111 405.868 258.191L405.868 352.078Z" fill="white"/>
</clipPath>
<clipPath id="clip1_4764_3757">
<path d="M0 171.149C0 170.069 0.875726 169.193 1.95599 169.193H4.88998V199.511H1.95599C0.875728 199.511 0 198.635 0 197.555V171.149Z" fill="white"/>
</clipPath>
<clipPath id="clip2_4764_3757">
<path d="M0 236.675C0 235.595 0.875726 234.719 1.95599 234.719H4.88998V289.487H1.95599C0.875728 289.487 0 288.611 0 287.531V236.675Z" fill="white"/>
</clipPath>
<clipPath id="clip3_4764_3757">
<path d="M0 313.937C0 312.856 0.875726 311.981 1.95599 311.981H4.88998V366.748H1.95599C0.875728 366.748 0 365.873 0 364.792V313.937Z" fill="white"/>
</clipPath>
<clipPath id="clip4_4764_3757">
<rect x="2.93359" width="400" height="824.45" rx="60.6357" fill="white"/>
</clipPath>
<clipPath id="clip5_4764_3757">
<rect x="6.8457" y="3.91211" width="392.176" height="816.626" rx="56.7237" fill="white"/>
</clipPath>
<clipPath id="clip6_4764_3757">
<rect width="376" height="482" fill="white" transform="translate(14.9336 113.783)"/>
</clipPath>
<clipPath id="clip7_4764_3757">
<rect x="35.6006" y="157.116" width="334.667" height="393.333" rx="22.6667" fill="white"/>
</clipPath>
<clipPath id="clip8_4764_3757">
<rect x="63.6006" y="322.069" width="465.403" height="97.8288" rx="48.9144" transform="rotate(-30.3205 63.6006 322.069)" fill="white"/>
</clipPath>
</defs>
</svg>
