<svg width="16" height="20" viewBox="0 0 16 20" fill="none" xmlns="http://www.w3.org/2000/svg">
<path d="M13.3636 10.4583C13.3832 8.94021 14.1985 7.50373 15.4918 6.70857C14.6759 5.54327 13.3092 4.80444 11.8874 4.75995C10.3708 4.60077 8.90062 5.66742 8.12782 5.66742C7.34007 5.66742 6.15022 4.77575 4.86895 4.80212C3.19887 4.85607 1.64194 5.80559 0.82941 7.26568C-0.917205 10.2897 0.385612 14.7339 2.05872 17.1783C2.89582 18.3752 3.87414 19.7122 5.15425 19.6648C6.40692 19.6129 6.87477 18.866 8.38684 18.866C9.88489 18.866 10.3238 19.6648 11.6299 19.6347C12.9741 19.6129 13.821 18.4324 14.6287 17.2242C15.2301 16.3713 15.693 15.4287 16 14.4313C14.4204 13.7632 13.3654 12.1735 13.3636 10.4583Z" fill="#0A0A0A"/>
<path d="M10.8966 3.15241C11.6295 2.2726 11.9906 1.14174 11.9031 0C10.7834 0.117603 9.74914 0.65275 9.00635 1.49881C8.27999 2.32546 7.90199 3.43641 7.97345 4.53452C9.09356 4.54605 10.1947 4.02541 10.8966 3.15241Z" fill="#0A0A0A"/>
</svg>
