<svg width="19" height="21" viewBox="0 0 19 21" fill="none" xmlns="http://www.w3.org/2000/svg">
<g filter="url(#filter0_ii_4748_444)">
<path d="M0.380543 0.309348C0.141368 0.549446 -3.51156e-07 0.922066 -3.51156e-07 1.4046V18.6449C-3.51156e-07 19.1282 0.141368 19.5 0.380543 19.7401L0.441364 19.7963L10.624 10.1386V10.0247V9.91093L0.441364 0.252442L0.380543 0.309348Z" fill="url(#paint0_linear_4748_444)"/>
<path d="M14.0196 13.3591L10.626 10.1388V10.025V9.91115L14.0204 6.69165L14.0969 6.73297L18.1185 8.90009C19.2667 9.51904 19.2667 10.5317 18.1185 11.1514L14.0969 13.3185L14.0196 13.3591Z" fill="url(#paint1_linear_4748_444)"/>
<g filter="url(#filter1_i_4748_444)">
<path d="M14.0952 13.3177L10.6234 10.0249L0.38086 19.7403C0.758937 20.1207 1.38441 20.1675 2.08878 19.7886L14.0952 13.3177Z" fill="url(#paint2_linear_4748_444)"/>
</g>
<path d="M14.0952 6.73216L2.08878 0.261984C1.38441 -0.117652 0.758937 -0.0700997 0.38086 0.310316L10.6243 10.0257L14.0952 6.73216Z" fill="url(#paint3_linear_4748_444)"/>
</g>
<defs>
<filter id="filter0_ii_4748_444" x="0" y="0" width="18.9795" height="20.0503" filterUnits="userSpaceOnUse" color-interpolation-filters="sRGB">
<feFlood flood-opacity="0" result="BackgroundImageFix"/>
<feBlend mode="normal" in="SourceGraphic" in2="BackgroundImageFix" result="shape"/>
<feColorMatrix in="SourceAlpha" type="matrix" values="0 0 0 0 0 0 0 0 0 0 0 0 0 0 0 0 0 0 127 0" result="hardAlpha"/>
<feOffset dy="-0.106301"/>
<feComposite in2="hardAlpha" operator="arithmetic" k2="-1" k3="1"/>
<feColorMatrix type="matrix" values="0 0 0 0 0 0 0 0 0 0 0 0 0 0 0 0 0 0 0.12 0"/>
<feBlend mode="normal" in2="shape" result="effect1_innerShadow_4748_444"/>
<feColorMatrix in="SourceAlpha" type="matrix" values="0 0 0 0 0 0 0 0 0 0 0 0 0 0 0 0 0 0 127 0" result="hardAlpha"/>
<feOffset dy="0.106301"/>
<feComposite in2="hardAlpha" operator="arithmetic" k2="-1" k3="1"/>
<feColorMatrix type="matrix" values="0 0 0 0 1 0 0 0 0 1 0 0 0 0 1 0 0 0 0.25 0"/>
<feBlend mode="normal" in2="effect1_innerShadow_4748_444" result="effect2_innerShadow_4748_444"/>
</filter>
<filter id="filter1_i_4748_444" x="0.380859" y="10.0249" width="13.7139" height="10.0254" filterUnits="userSpaceOnUse" color-interpolation-filters="sRGB">
<feFlood flood-opacity="0" result="BackgroundImageFix"/>
<feBlend mode="normal" in="SourceGraphic" in2="BackgroundImageFix" result="shape"/>
<feColorMatrix in="SourceAlpha" type="matrix" values="0 0 0 0 0 0 0 0 0 0 0 0 0 0 0 0 0 0 127 0" result="hardAlpha"/>
<feOffset dy="-0.106301"/>
<feComposite in2="hardAlpha" operator="arithmetic" k2="-1" k3="1"/>
<feColorMatrix type="matrix" values="0 0 0 0 0 0 0 0 0 0 0 0 0 0 0 0 0 0 0.08 0"/>
<feBlend mode="normal" in2="shape" result="effect1_innerShadow_4748_444"/>
</filter>
<linearGradient id="paint0_linear_4748_444" x1="9.72134" y1="1.22219" x2="-3.34259" y2="14.9961" gradientUnits="userSpaceOnUse">
<stop stop-color="#00A0FF"/>
<stop offset="0.0066" stop-color="#00A1FF"/>
<stop offset="0.2601" stop-color="#00BEFF"/>
<stop offset="0.5122" stop-color="#00D2FF"/>
<stop offset="0.7604" stop-color="#00DFFF"/>
<stop offset="1" stop-color="#00E3FF"/>
</linearGradient>
<linearGradient id="paint1_linear_4748_444" x1="19.6131" y1="10.025" x2="-0.273641" y2="10.025" gradientUnits="userSpaceOnUse">
<stop stop-color="#FFE000"/>
<stop offset="0.4087" stop-color="#FFBD00"/>
<stop offset="0.7754" stop-color="#FFA500"/>
<stop offset="1" stop-color="#FF9C00"/>
</linearGradient>
<linearGradient id="paint2_linear_4748_444" x1="12.2098" y1="11.8131" x2="-5.50652" y2="30.4923" gradientUnits="userSpaceOnUse">
<stop stop-color="#FF3A44"/>
<stop offset="1" stop-color="#C31162"/>
</linearGradient>
<linearGradient id="paint3_linear_4748_444" x1="-2.19877" y1="-5.42881" x2="5.71206" y2="2.91196" gradientUnits="userSpaceOnUse">
<stop stop-color="#32A071"/>
<stop offset="0.0685" stop-color="#2DA771"/>
<stop offset="0.4762" stop-color="#15CF74"/>
<stop offset="0.8009" stop-color="#06E775"/>
<stop offset="1" stop-color="#00F076"/>
</linearGradient>
</defs>
</svg>
