<svg width="45" height="45" viewBox="0 0 45 45" fill="none" xmlns="http://www.w3.org/2000/svg">
<path d="M7.9425 16.2597C7.83024 16.1922 7.70452 16.1502 7.57422 16.1366C7.44393 16.123 7.31224 16.1382 7.18847 16.1812C7.0647 16.2241 6.95187 16.2937 6.85796 16.385C6.76405 16.4763 6.69135 16.5872 6.645 16.7097C5.96883 18.5652 5.62359 20.5249 5.625 22.4997C5.625 24.5341 5.985 26.486 6.645 28.2916C6.83625 28.8166 7.45875 29.0191 7.9425 28.7397L11.2669 26.8197C11.4577 26.705 11.6045 26.5296 11.6837 26.3215C11.763 26.1134 11.77 25.8848 11.7038 25.6722C11.4019 24.6418 11.2491 23.5735 11.25 22.4997C11.25 21.3972 11.4075 20.3341 11.7038 19.3272C11.77 19.1147 11.763 18.886 11.6837 18.6779C11.6045 18.4698 11.4577 18.2944 11.2669 18.1797L7.9425 16.2597ZM9.5625 11.666C9.47931 11.7674 9.41944 11.8858 9.38714 12.013C9.35483 12.1401 9.35089 12.2728 9.37558 12.4016C9.40027 12.5304 9.45299 12.6522 9.53001 12.7584C9.60703 12.8646 9.70646 12.9525 9.82125 13.016L13.1456 14.9341C13.3404 15.0416 13.5657 15.0806 13.7853 15.045C14.0049 15.0093 14.2062 14.9009 14.3569 14.7372C15.8448 13.1752 17.7506 12.074 19.8469 11.5647C20.0647 11.5163 20.2599 11.3961 20.401 11.2233C20.5421 11.0505 20.621 10.8353 20.625 10.6122V6.77409C20.625 6.21534 20.1375 5.78034 19.5881 5.87409C15.6678 6.56195 12.1167 8.61341 9.5625 11.666ZM31.8563 30.0653C31.6613 29.9574 31.4356 29.9181 31.2156 29.9538C30.9956 29.9895 30.794 30.0981 30.6431 30.2622C29.1552 31.8242 27.2495 32.9255 25.1531 33.4347C24.9353 33.4831 24.7402 33.6034 24.599 33.7761C24.4579 33.9489 24.379 34.1642 24.375 34.3872V38.2253C24.375 38.7841 24.8625 39.2191 25.4119 39.1253C29.3329 38.4379 32.8847 36.3864 35.4394 33.3335C35.5225 33.2319 35.5823 33.1134 35.6144 32.9862C35.6466 32.8589 35.6504 32.7262 35.6255 32.5974C35.6006 32.4685 35.5477 32.3468 35.4705 32.2407C35.3933 32.1346 35.2937 32.0468 35.1788 31.9835L31.8563 30.0653ZM38.355 28.2916C38.3085 28.414 38.2356 28.5246 38.1416 28.6158C38.0476 28.7069 37.9348 28.7763 37.811 28.819C37.6873 28.8618 37.5557 28.8768 37.4255 28.8631C37.2952 28.8494 37.1696 28.8073 37.0575 28.7397L33.7331 26.8197C33.5423 26.705 33.3955 26.5296 33.3163 26.3215C33.237 26.1134 33.23 25.8848 33.2963 25.6722C33.5981 24.6418 33.7509 23.5735 33.75 22.4997C33.75 21.3972 33.5925 20.3341 33.2963 19.3272C33.23 19.1147 33.237 18.886 33.3163 18.6779C33.3955 18.4698 33.5423 18.2944 33.7331 18.1797L37.0575 16.2597C37.1698 16.1922 37.2955 16.1502 37.4258 16.1366C37.5561 16.123 37.6878 16.1382 37.8115 16.1812C37.9353 16.2241 38.0481 16.2937 38.142 16.385C38.236 16.4763 38.3087 16.5872 38.355 16.7097C39.015 18.5135 39.375 20.4653 39.375 22.4997C39.3766 24.4752 39.0314 26.4356 38.355 28.2916ZM20.625 38.2253C20.625 38.7841 20.1375 39.2191 19.5881 39.1253C15.6678 38.4375 12.1167 36.386 9.5625 33.3335C9.47939 33.2319 9.41962 33.1134 9.38746 32.9862C9.35529 32.8589 9.35151 32.7262 9.37639 32.5974C9.40126 32.4685 9.45417 32.3468 9.53138 32.2407C9.60859 32.1346 9.70819 32.0468 9.82313 31.9835L13.1475 30.0653C13.3423 29.9578 13.5675 29.9188 13.7871 29.9545C14.0068 29.9902 14.208 30.0985 14.3588 30.2622C15.8467 31.8242 17.7524 32.9255 19.8488 33.4347C20.0666 33.4831 20.2617 33.6034 20.4029 33.7761C20.544 33.9489 20.6229 34.1642 20.6269 34.3872L20.625 38.2253ZM24.375 6.77409C24.375 6.21534 24.8625 5.78034 25.4119 5.87409C29.3322 6.56195 32.8833 8.61341 35.4375 11.666C35.7956 12.0953 35.6625 12.7347 35.1769 13.016L31.8525 14.9341C31.6577 15.0416 31.4325 15.0806 31.2129 15.045C30.9932 15.0093 30.792 14.9009 30.6413 14.7372C29.1533 13.1752 27.2476 12.074 25.1513 11.5647C24.9338 11.516 24.739 11.3956 24.5983 11.2228C24.4575 11.0501 24.3789 10.835 24.375 10.6122V6.77409Z" fill="#8803E0"/>
<path d="M20.1701 26.4592C19.9847 26.4593 19.8011 26.4228 19.6298 26.3518C19.4585 26.2808 19.3029 26.1767 19.1719 26.0455L16.0879 22.9631L17.2647 21.7869L20.1701 24.6923L27.734 17.1284L28.9108 18.3047L21.1684 26.0455C21.0374 26.1767 20.8818 26.2808 20.7105 26.3518C20.5392 26.4228 20.3556 26.4593 20.1701 26.4592Z" fill="#8803E0"/>
</svg>
